<svg xmlns="http://www.w3.org/2000/svg" width="64" height="64" viewBox="0 0 64 64"><g transform="translate(-414 -1460)"><rect width="64" height="64" transform="translate(414 1460)" fill="none"/><g transform="translate(-126.8 1145.39)"><path d="M573.657,360.623H561.539l2.542-11.63h7.034Z" transform="translate(5.203 9.148)" fill="none" stroke="#fff" stroke-linecap="round" stroke-linejoin="round" stroke-width="2"/><path d="M598.591,328.3v24.989a4.846,4.846,0,0,1-4.862,4.848H551.872a4.846,4.846,0,0,1-4.862-4.848V328.3a4.846,4.846,0,0,1,4.862-4.848h41.857A4.846,4.846,0,0,1,598.591,328.3Z" transform="translate(0 0)" fill="none" stroke="#fff" stroke-linecap="round" stroke-linejoin="round" stroke-width="2"/><path d="M598.591,328.3v22.911H547.01V328.3a4.846,4.846,0,0,1,4.862-4.848h41.857A4.846,4.846,0,0,1,598.591,328.3Z" transform="translate(0 0)" fill="none" stroke="#fff" stroke-linecap="round" stroke-linejoin="round" stroke-width="2"/><line x2="21.463" transform="translate(562.069 369.77)" fill="#c3e0fc" stroke="#fff" stroke-linecap="round" stroke-linejoin="round" stroke-width="2"/></g></g></svg>