<svg xmlns="http://www.w3.org/2000/svg" width="64" height="64" viewBox="0 0 64 64"><g transform="translate(-414 -1460)"><rect width="64" height="64" transform="translate(414 1460)" fill="none"/><g transform="translate(29.037 1358.898)"><path d="M429.706,133.483V110.957H396.273v44.29h33.434V141.439" transform="translate(0)" fill="none" stroke="#fff" stroke-linecap="round" stroke-linejoin="round" stroke-width="2"/><line x1="7.786" y2="7.786" transform="translate(421.921 133.483)" fill="none" stroke="#fff" stroke-linecap="round" stroke-linejoin="round" stroke-width="2"/><line x1="14.452" y2="14.452" transform="translate(429.706 126.988)" fill="none" stroke="#fff" stroke-linecap="round" stroke-linejoin="round" stroke-width="2"/><line y1="10.473" x2="10.473" transform="translate(429.706 123.009)" fill="none" stroke="#fff" stroke-linecap="round" stroke-linejoin="round" stroke-width="2"/><line y1="3.807" x2="3.807" transform="translate(425.899 141.439)" fill="none" stroke="#fff" stroke-linecap="round" stroke-linejoin="round" stroke-width="2"/><path d="M422.131,119.038l2.391-2.391,3.978,3.978-2.391,2.391" transform="translate(18.049 3.972)" fill="none" stroke="#fff" stroke-linecap="round" stroke-linejoin="round" stroke-width="2"/><line x2="3.978" y2="3.978" transform="translate(440.18 123.009)" fill="none" stroke="#fff" stroke-linecap="round" stroke-linejoin="round" stroke-width="2"/><line y1="1.681" x2="3.67" transform="translate(422.229 145.247)" fill="none" stroke="#fff" stroke-linecap="round" stroke-linejoin="round" stroke-width="2"/><line x1="1.681" y2="3.67" transform="translate(420.239 141.269)" fill="none" stroke="#fff" stroke-linecap="round" stroke-linejoin="round" stroke-width="2"/><line x1="3.978" y1="3.978" transform="translate(421.921 141.269)" fill="none" stroke="#fff" stroke-linecap="round" stroke-linejoin="round" stroke-width="2"/><path d="M411.079,130.97l-1.681,3.67,3.67-1.681" transform="translate(9.161 13.969)" fill="none" stroke="#fff" stroke-linecap="round" stroke-linejoin="round" stroke-width="2"/><line x1="1.989" y1="1.989" transform="translate(420.239 144.939)" fill="none" stroke="#fff" stroke-linecap="round" stroke-linejoin="round" stroke-width="2"/><line x2="20.346" transform="translate(403.021 120.577)" fill="none" stroke="#fff" stroke-linecap="round" stroke-linejoin="round" stroke-width="2"/><line x2="20.346" transform="translate(403.021 126.987)" fill="none" stroke="#fff" stroke-linecap="round" stroke-linejoin="round" stroke-width="2"/><line x2="15.527" transform="translate(403.021 133.398)" fill="none" stroke="#fff" stroke-linecap="round" stroke-linejoin="round" stroke-width="2"/></g></g></svg>