<svg xmlns="http://www.w3.org/2000/svg" width="65.986" height="64" viewBox="0 0 65.986 64"><g transform="translate(-413.013 -1460)"><rect width="64" height="64" transform="translate(414 1460)" fill="none"/><g transform="translate(271.055 454.801)"><path d="M3.271,16.943H0V10.688A11.711,11.711,0,0,1,6.934,0l4.785,8.287L16.5,0a11.711,11.711,0,0,1,6.934,10.688v6.254h-3.27V9.759H3.271v7.184Z" transform="translate(161.93 1025.646)" fill="none" stroke="#fff" stroke-linecap="round" stroke-linejoin="round" stroke-width="2"/><g transform="translate(165.888 1011.834)"><g transform="translate(0)"><path d="M186.982,1019.595a7.761,7.761,0,1,1-7.761-7.761A7.762,7.762,0,0,1,186.982,1019.595Z" transform="translate(-171.461 -1011.834)" fill="none" stroke="#fff" stroke-linecap="round" stroke-linejoin="round" stroke-width="2"/></g></g><g transform="translate(186.969 1012.194)"><path d="M216.555,1012.281h-9.411a3.423,3.423,0,0,0-3.422,3.422v1.615L200,1019.467l3.721,2.148v1.616a3.423,3.423,0,0,0,3.422,3.422h9.411a3.422,3.422,0,0,0,3.422-3.422V1015.7A3.422,3.422,0,0,0,216.555,1012.281Z" transform="translate(-200.001 -1012.281)" fill="none" stroke="#fff" stroke-linejoin="round" stroke-width="2"/><line x2="6.16" transform="translate(8.649 4.27)" fill="#fff" stroke="#fff" stroke-width="1.5"/><line x2="6.16" transform="translate(8.649 7.179)" fill="#fff" stroke="#fff" stroke-width="1.5"/><line x2="6.16" transform="translate(8.649 10.088)" fill="#fff" stroke="#fff" stroke-width="1.5"/></g><path d="M61.378,16.9H0L7.644,0h14.6V7.194H39.136V0h14.6l7.642,16.9Z" transform="translate(142.958 1042.589)" fill="none" stroke="#fff" stroke-linecap="round" stroke-linejoin="round" stroke-width="2"/></g></g></svg>