<svg xmlns="http://www.w3.org/2000/svg" width="64" height="64" viewBox="0 0 64 64"><g transform="translate(-414 -1460)"><rect width="64" height="64" transform="translate(414 1460)" fill="none"/><g transform="translate(-218.952 723.755)"><path d="M680.769,773.27h7.99V746.408H640.533v26.861h8.438" fill="none" stroke="#fff" stroke-miterlimit="10" stroke-width="2"/><line x1="0.571" transform="translate(680.197 773.27)" fill="none" stroke="#fff" stroke-miterlimit="10" stroke-width="2"/><path d="M653.244,776.179a2.662,2.662,0,0,0,.914-2v0a2.678,2.678,0,1,0-4.441,2" fill="none" stroke="#fff" stroke-miterlimit="10" stroke-width="2"/><path d="M658.217,778.852v.6" fill="none" stroke="#fff" stroke-miterlimit="10" stroke-width="2"/><path d="M644.827,779.453v-.6a2.686,2.686,0,0,1,2.678-2.678h8.034a2.685,2.685,0,0,1,2.678,2.673" fill="none" stroke="#fff" stroke-miterlimit="10" stroke-width="2"/><path d="M666.634,776.179a2.679,2.679,0,1,0-3.527,0Z" fill="none" stroke="#fff" stroke-miterlimit="10" stroke-width="2"/><path d="M671.606,778.852v.6" fill="none" stroke="#fff" stroke-miterlimit="10" stroke-width="2"/><path d="M658.217,778.852v.6" fill="none" stroke="#fff" stroke-miterlimit="10" stroke-width="2"/><path d="M671.606,778.852a2.685,2.685,0,0,0-2.678-2.673h-8.034a2.685,2.685,0,0,0-2.677,2.673" fill="none" stroke="#fff" stroke-miterlimit="10" stroke-width="2"/><path d="M680.023,776.179a2.679,2.679,0,1,0-3.527,0" fill="none" stroke="#fff" stroke-miterlimit="10" stroke-width="2"/><path d="M671.606,778.852v.6" fill="none" stroke="#fff" stroke-miterlimit="10" stroke-width="2"/><path d="M671.606,778.852a2.685,2.685,0,0,1,2.677-2.673h8.033a2.685,2.685,0,0,1,2.678,2.678v.6" fill="none" stroke="#fff" stroke-miterlimit="10" stroke-width="2"/><path d="M651.564,790.083V786.8" fill="none" stroke="#fff" stroke-miterlimit="10" stroke-width="2"/><path d="M651.564,786.8a2.685,2.685,0,0,0-2.678-2.673h-8.034a2.686,2.686,0,0,0-2.678,2.678v3.276" fill="none" stroke="#fff" stroke-miterlimit="10" stroke-width="2"/><path d="M664.953,786.8a2.685,2.685,0,0,0-2.678-2.673h-8.034a2.685,2.685,0,0,0-2.677,2.673v3.281" fill="none" stroke="#fff" stroke-miterlimit="10" stroke-width="2"/><line x1="0.001" transform="translate(658.216 784.129)" fill="none" stroke="#fff" stroke-miterlimit="10" stroke-width="2"/><path d="M664.953,790.083V786.8" fill="none" stroke="#fff" stroke-miterlimit="10" stroke-width="2"/><line x1="0.001" transform="translate(671.605 784.129)" fill="none" stroke="#fff" stroke-miterlimit="10" stroke-width="2"/><path d="M678.343,790.083V786.8" fill="none" stroke="#fff" stroke-miterlimit="10" stroke-width="2"/><path d="M664.952,790.083V786.8a2.685,2.685,0,0,1,2.677-2.673h8.035a2.685,2.685,0,0,1,2.677,2.668" fill="none" stroke="#fff" stroke-miterlimit="10" stroke-width="2"/><line x1="1.767" transform="translate(684.994 784.129)" fill="none" stroke="#fff" stroke-miterlimit="10" stroke-width="2"/><line x2="1.767" transform="translate(683.227 784.129)" fill="none" stroke="#fff" stroke-miterlimit="10" stroke-width="2"/><path d="M691.731,790.083v-3.276a2.685,2.685,0,0,0-2.678-2.678h-8.034a2.685,2.685,0,0,0-2.677,2.668v3.286" fill="none" stroke="#fff" stroke-miterlimit="10" stroke-width="2"/><path d="M646.594,784.129a2.66,2.66,0,0,0,.911-2v0a2.678,2.678,0,1,0-4.445,2" fill="none" stroke="#fff" stroke-miterlimit="10" stroke-width="2"/><path d="M659.984,784.129a2.678,2.678,0,1,0-3.534,0" fill="none" stroke="#fff" stroke-miterlimit="10" stroke-width="2"/><path d="M658.216,779.453h0" fill="none" stroke="#fff" stroke-miterlimit="10" stroke-width="2"/><path d="M671.606,779.453h0" fill="none" stroke="#fff" stroke-miterlimit="10" stroke-width="2"/><path d="M669.838,784.129a2.668,2.668,0,0,1,1.767-4.676h0a2.668,2.668,0,0,1,1.766,4.676" fill="none" stroke="#fff" stroke-miterlimit="10" stroke-width="2"/><path d="M683.227,784.129a2.678,2.678,0,1,1,3.534,0" fill="none" stroke="#fff" stroke-miterlimit="10" stroke-width="2"/></g></g></svg>