<svg xmlns="http://www.w3.org/2000/svg" width="64" height="64" viewBox="0 0 64 64"><g transform="translate(-414 -1460)"><rect width="64" height="64" transform="translate(414 1460)" fill="none"/><g transform="translate(-128.752 771.505)"><path d="M596.22,707.432v-6.938H548.6v6.938" transform="translate(0 0)" fill="none" stroke="#fff" stroke-linecap="round" stroke-linejoin="round" stroke-width="2"/><path d="M596.22,740.994v1.8H548.6V710.507" transform="translate(0 -3.074)" fill="none" stroke="#fff" stroke-linecap="round" stroke-linejoin="round" stroke-width="2"/><line y2="18.582" transform="translate(596.22 707.432)" fill="none" stroke="#fff" stroke-linecap="round" stroke-linejoin="round" stroke-width="2"/><path d="M617.316,737.322" transform="translate(-21.097 -11.307)" fill="none" stroke="#fff" stroke-linecap="round" stroke-linejoin="round" stroke-width="2"/><path d="M617.316,754.5" transform="translate(-21.097 -16.582)" fill="none" stroke="#fff" stroke-linecap="round" stroke-linejoin="round" stroke-width="2"/><line x1="47.615" transform="translate(548.605 707.432)" fill="none" stroke="#fff" stroke-linecap="round" stroke-linejoin="round" stroke-width="2"/><line x2="0.8" transform="translate(551.345 703.971)" fill="none" stroke="#fff" stroke-linecap="round" stroke-linejoin="round" stroke-width="2"/><line x2="0.8" transform="translate(554.771 703.971)" fill="none" stroke="#fff" stroke-linecap="round" stroke-linejoin="round" stroke-width="2"/><line x2="0.8" transform="translate(558.197 703.971)" fill="none" stroke="#fff" stroke-linecap="round" stroke-linejoin="round" stroke-width="2"/><rect width="13.161" height="15.562" transform="translate(556.991 715.134)" fill="none" stroke="#fff" stroke-linecap="round" stroke-linejoin="round" stroke-width="2"/><line x2="6" transform="translate(560.703 719.536)" fill="none" stroke="#fff" stroke-linecap="round" stroke-linejoin="round" stroke-width="2"/><line x2="6" transform="translate(560.703 722.915)" fill="none" stroke="#fff" stroke-linecap="round" stroke-linejoin="round" stroke-width="2"/><line x1="4.465" transform="translate(560.703 726.294)" fill="none" stroke="#fff" stroke-linecap="round" stroke-linejoin="round" stroke-width="2"/><path d="M599.486,737.183H586.459V721.621H599.62v8.668" transform="translate(-11.622 -6.487)" fill="none" stroke="#fff" stroke-linecap="round" stroke-linejoin="round" stroke-width="2"/><path d="M605.451,734.13" transform="translate(-17.454 -10.327)" fill="none" stroke="#fff" stroke-linecap="round" stroke-linejoin="round" stroke-width="2"/><line x2="0.134" transform="translate(587.863 730.696)" fill="none" stroke="#fff" stroke-linecap="round" stroke-linejoin="round" stroke-width="2"/><line x2="6" transform="translate(578.752 719.536)" fill="none" stroke="#fff" stroke-linecap="round" stroke-linejoin="round" stroke-width="2"/><line x1="6" transform="translate(578.752 722.915)" fill="none" stroke="#fff" stroke-linecap="round" stroke-linejoin="round" stroke-width="2"/><line x1="4.465" transform="translate(578.752 726.294)" fill="none" stroke="#fff" stroke-linecap="round" stroke-linejoin="round" stroke-width="2"/><path d="M617.316,749.227l4.964,4.667,4.568-4.86-8.843-8.314,2.41-2.564-3.1-.834" transform="translate(-21.097 -11.307)" fill="none" stroke="#fff" stroke-linecap="round" stroke-linejoin="round" stroke-width="2"/><line x1="8.222" y1="2.212" transform="translate(587.997 723.803)" fill="none" stroke="#fff" stroke-linecap="round" stroke-linejoin="round" stroke-width="2"/><path d="M605.258,744.078l2.066,6.141,2.411-2.565,3.879,3.647" transform="translate(-17.394 -13.381)" fill="none" stroke="#fff" stroke-linecap="round" stroke-linejoin="round" stroke-width="2"/><path d="M604.122,740.7l-2.563-7.618,2.7.725" transform="translate(-16.259 -10.006)" fill="none" stroke="#fff" stroke-linecap="round" stroke-linejoin="round" stroke-width="2"/></g></g></svg>