<svg xmlns="http://www.w3.org/2000/svg" width="64" height="64" viewBox="0 0 64 64"><g transform="translate(-414 -1460)"><rect width="64" height="64" transform="translate(414 1460)" fill="none"/><g transform="translate(421.265 905.81)"><g transform="translate(-1.101 577.375)"><path d="M35.358,615.644l.515-.516a2.62,2.62,0,0,0,0-3.7l-5.017-5.017a2.62,2.62,0,0,0-3.7,0l-.759.759,8.71,8.71C35.188,615.8,35.276,615.725,35.358,615.644Z" transform="translate(-4.437 -586.003)" fill="none" stroke="#fff" stroke-linecap="round" stroke-linejoin="round" stroke-width="2"/><path d="M10.527,591.3l.759-.759a2.62,2.62,0,0,0,0-3.7L6.27,581.817a2.62,2.62,0,0,0-3.7,0l-.516.515c-.081.081-.154.17-.232.255Z" transform="translate(0.513 -581.05)" fill="none" stroke="#fff" stroke-linecap="round" stroke-linejoin="round" stroke-width="2"/><path d="M-.964,588l-.113,1.484a8.364,8.364,0,0,0,2.426,6.549L16.5,611.191a8.363,8.363,0,0,0,6.549,2.426l1.484-.113a8.356,8.356,0,0,0,5.029-2.194l-8.71-8.71-1.949,1.948L7.992,593.634l1.948-1.949-8.71-8.71A8.356,8.356,0,0,0-.964,588Z" transform="translate(1.101 -581.438)" fill="none" stroke="#fff" stroke-linecap="round" stroke-linejoin="round" stroke-width="2"/></g><path d="M43.179,562.8A13.569,13.569,0,0,0,37.1,588.508l-1.354,6.512,4.68-5.343a13.578,13.578,0,1,0,2.75-26.875Z" transform="translate(-6.184)" fill="none" stroke="#fff" stroke-linecap="round" stroke-linejoin="round" stroke-width="2"/><g transform="translate(33.561 569.921)"><path d="M42.3,575.15a3.433,3.433,0,1,1,3.434,3.433v2.78" transform="translate(-42.304 -571.716)" fill="none" stroke="#fff" stroke-linecap="round" stroke-linejoin="round" stroke-width="2"/><line y2="0.416" transform="translate(3.434 12.785)" fill="#fff" stroke="#fff" stroke-linecap="round" stroke-linejoin="round" stroke-width="2"/></g><path d="M33.517,590.632a13.12,13.12,0,0,0,2.627,1.733l-.128.6A13.053,13.053,0,0,1,33.517,590.632Z" transform="translate(-6.973 -5.605)" fill="none" stroke="#fff" stroke-width="2" style="mix-blend-mode:darken;isolation:isolate"/></g></g></svg>